<svg width="57" height="42" viewBox="0 0 57 42" fill="none" xmlns="http://www.w3.org/2000/svg">
<path d="M0.500002 20.692C0.500002 15.1779 3.57748 10.1417 8.64122 6.46531C13.7044 2.78928 20.724 0.500226 28.5 0.500226C36.2761 0.500227 43.2956 2.78929 48.3588 6.46532C53.4225 10.1417 56.5 15.1779 56.5 20.692C56.5 26.2061 53.4225 31.2423 48.3588 34.9187C43.2956 38.5947 36.2761 40.8838 28.5 40.8838C20.7239 40.8838 13.7044 38.5947 8.64121 34.9187C3.57747 31.2423 0.500001 26.2061 0.500002 20.692Z" stroke="white"/>
<path d="M23.0712 20.3383C22.8759 20.5336 22.8759 20.8502 23.0712 21.0454L26.2532 24.2274C26.4484 24.4227 26.765 24.4227 26.9603 24.2274C27.1555 24.0322 27.1555 23.7156 26.9603 23.5203L24.1319 20.6919L26.9603 17.8635C27.1556 17.6682 27.1556 17.3516 26.9603 17.1564C26.765 16.9611 26.4484 16.9611 26.2532 17.1564L23.0712 20.3383ZM33.5754 20.1919L23.4248 20.1919L23.4248 21.1919L33.5754 21.1919L33.5754 20.1919Z" fill="white"/>
</svg>
