<svg width="1879" height="313" viewBox="0 0 1879 313" fill="none" xmlns="http://www.w3.org/2000/svg">
<path d="M0.635429 6.50025H238.514V39.7023H138.487V307H100.662V39.7023H0.635429V6.50025ZM279.849 118.295H280.689C288.675 107.788 297.921 99.8023 309.268 93.4981C320.195 87.6142 333.644 84.6722 349.615 84.6722C372.31 84.6722 390.382 90.5561 403.411 102.324C416.439 114.512 422.744 131.743 422.744 154.439V307H388.701V157.381C388.701 143.091 384.498 132.164 375.672 124.599C366.847 117.034 355.079 113.251 339.528 113.251C330.702 113.251 322.717 114.512 315.572 117.454C308.428 120.396 302.123 124.599 296.66 129.642C291.196 135.106 287.414 141.41 284.472 148.555C281.53 156.12 279.849 164.525 279.849 173.351V307H245.806V6.50025H279.849V118.295ZM535.513 312.884C519.122 312.884 504.412 309.942 491.384 303.638C478.355 297.754 467.008 289.769 458.182 279.262C449.356 268.755 442.211 256.566 437.588 242.697C432.965 228.828 430.443 214.118 430.443 198.568C430.443 183.018 432.965 167.888 438.008 154.018C442.631 140.149 449.776 128.381 459.022 117.874C467.848 107.367 478.775 99.382 491.384 93.0778C503.992 87.1939 517.861 84.2519 533.412 84.2519C549.803 84.2519 564.092 87.1939 576.701 93.0778C588.889 99.382 599.396 107.788 607.801 118.295C616.207 129.222 622.511 142.25 627.134 156.96C631.337 172.09 633.438 188.481 633.438 206.553H465.326C465.747 217.48 467.848 227.567 471.21 237.234C474.573 246.9 479.196 254.885 485.08 262.03C490.964 269.175 498.108 274.638 506.514 278.421C514.919 282.204 524.586 284.305 535.513 284.305C551.484 284.305 564.512 280.522 574.599 272.957C584.686 265.813 591.831 254.465 595.613 239.755H628.815C623.772 263.291 613.265 281.363 596.874 293.971C580.483 306.58 560.31 312.884 535.513 312.884ZM533.412 111.15C523.325 111.15 514.499 112.831 506.514 116.193C498.529 119.976 492.224 124.599 486.761 130.903C481.297 137.207 476.674 144.772 473.312 153.178C469.529 162.004 467.428 171.25 466.167 180.916H596.874C595.613 159.062 589.729 141.83 579.222 129.642C568.295 117.454 553.165 111.15 533.412 111.15ZM799.15 312.884C778.136 312.884 759.644 309.942 744.093 304.478C728.543 299.015 715.514 291.45 705.007 281.783C694.5 272.117 686.095 260.769 680.631 247.741C675.167 234.712 671.805 220.422 670.965 205.292H707.949C712.993 256.987 744.093 282.624 800.831 282.624C811.338 282.624 821.004 281.363 829.83 278.841C838.656 276.74 846.221 272.957 852.525 268.334C858.829 263.711 863.453 257.827 867.235 250.683C870.597 243.538 872.278 235.553 872.278 226.306C872.278 215.799 870.177 207.394 865.974 200.669C861.351 193.945 855.467 188.481 847.482 183.858C839.497 179.235 830.25 175.453 819.323 172.511C807.976 169.569 795.788 166.627 782.339 163.685C769.31 160.743 756.702 157.381 744.934 153.598C732.746 149.816 722.239 145.192 713.413 138.888C704.587 132.584 697.442 125.019 691.979 115.353C686.515 106.106 683.993 94.3386 683.993 80.0491C683.993 67.861 686.515 56.5135 691.558 46.8471C696.181 37.1806 703.326 28.775 712.152 21.6303C720.978 14.9058 731.905 9.86249 744.513 6.07997C757.122 2.29746 770.991 0.616335 786.121 0.616335C805.034 0.616335 821.004 2.71773 834.874 7.34079C848.322 11.9639 859.67 18.6883 868.496 26.6736C877.322 34.659 884.467 44.7457 889.51 56.0932C894.553 67.861 897.915 80.4694 900.017 94.3386H864.293C861.351 72.9044 853.366 56.5135 840.337 46.0065C826.888 35.4995 809.237 30.0359 786.962 30.0359C766.368 30.0359 749.977 34.2387 737.789 42.224C725.601 50.6296 719.297 62.8177 719.297 78.368C719.297 86.7736 721.398 93.9184 725.181 99.382C728.963 105.266 734.427 110.309 741.572 114.092C748.716 118.295 757.122 121.657 766.788 124.178C776.455 126.7 786.541 129.222 797.889 131.323C812.599 134.265 826.468 137.627 839.917 141.41C853.366 145.192 865.134 150.656 875.641 157.381C886.148 164.105 894.133 172.931 900.437 183.438C906.741 194.365 909.683 208.234 909.683 225.046C909.683 238.915 907.162 251.523 901.698 262.45C896.234 273.378 888.249 282.624 878.583 289.769C868.916 297.334 857.148 303.217 843.699 307C830.25 310.783 815.541 312.884 799.15 312.884ZM1015.58 312.884C999.193 312.884 984.903 309.942 971.875 303.638C958.846 297.754 947.919 289.769 939.093 279.262C929.847 268.755 922.702 256.566 918.079 242.697C913.036 228.828 910.514 214.118 910.514 198.568C910.514 183.018 913.036 167.888 918.079 154.018C922.702 140.149 929.847 128.381 939.093 117.874C947.919 107.367 958.846 99.382 971.875 93.0778C984.903 87.1939 999.193 84.2519 1015.58 84.2519C1031.97 84.2519 1046.26 87.1939 1059.29 93.0778C1072.32 99.382 1083.25 107.367 1092.49 117.874C1101.32 128.381 1108.47 140.149 1113.09 154.018C1117.71 167.888 1120.23 183.018 1120.23 198.568C1120.23 214.118 1117.71 228.828 1113.09 242.697C1108.47 256.566 1101.32 268.755 1092.49 279.262C1083.25 289.769 1072.32 297.754 1059.29 303.638C1046.26 309.942 1031.97 312.884 1015.58 312.884ZM1015.58 284.305C1026.93 284.305 1037.02 282.204 1045.84 277.58C1054.67 272.957 1061.81 267.073 1067.7 259.088C1073.58 251.523 1078.21 242.697 1081.15 232.19C1084.09 221.683 1085.35 210.756 1085.35 198.568C1085.35 186.38 1084.09 175.453 1081.15 164.946C1078.21 154.439 1073.58 145.613 1067.7 137.627C1061.81 129.642 1054.67 123.758 1045.84 119.135C1037.02 114.512 1026.93 112.411 1015.58 112.411C1004.24 112.411 994.15 114.512 985.324 119.135C976.498 123.758 968.933 129.642 963.049 137.627C957.165 145.613 952.962 154.439 950.02 164.946C947.078 175.453 945.397 186.38 945.397 198.568C945.397 210.756 947.078 221.683 950.02 232.19C952.962 242.697 957.165 251.523 963.049 259.088C968.933 267.073 976.498 272.957 985.324 277.58C994.15 282.204 1004.24 284.305 1015.58 284.305ZM1128.97 89.7156H1163.01V120.816H1163.85C1170.57 110.309 1179.4 101.483 1190.75 94.7589C1201.68 88.0344 1213.86 84.6722 1227.73 84.6722C1241.18 84.6722 1252.95 88.0344 1262.62 94.3386C1272.28 101.063 1279.85 110.73 1284.47 123.338H1285.31C1292.46 110.73 1301.7 101.063 1313.89 94.3386C1325.66 88.0344 1338.27 84.6722 1351.72 84.6722C1371.05 84.6722 1387.02 90.5561 1399.21 102.324C1411.4 114.512 1417.7 131.743 1417.7 154.439V307H1383.66V156.12C1383.66 142.671 1379.87 132.164 1371.89 124.599C1363.9 117.034 1354.66 113.251 1343.73 113.251C1336.59 113.251 1329.86 114.512 1323.56 117.454C1317.25 120.396 1311.37 124.599 1306.75 129.642C1301.7 135.106 1297.92 140.99 1294.98 148.134C1292.04 155.279 1290.35 163.264 1290.35 171.67V307H1256.31V156.12C1256.31 142.671 1252.95 132.164 1246.23 124.599C1239.08 117.034 1230.25 113.251 1218.91 113.251C1212.18 113.251 1205.46 114.512 1199.15 117.454C1192.43 120.396 1186.55 124.599 1181.08 129.642C1175.62 135.106 1171.42 140.99 1168.05 148.134C1164.69 155.279 1163.01 163.264 1163.01 171.67V307H1128.97V89.7156ZM1471.47 118.295H1472.31C1480.3 107.788 1489.54 99.8023 1500.89 93.4981C1511.82 87.6142 1525.27 84.6722 1541.24 84.6722C1563.93 84.6722 1582.01 90.5561 1595.03 102.324C1608.06 114.512 1614.37 131.743 1614.37 154.439V307H1580.32V157.381C1580.32 143.091 1576.12 132.164 1567.3 124.599C1558.47 117.034 1546.7 113.251 1531.15 113.251C1522.33 113.251 1514.34 114.512 1507.2 117.454C1500.05 120.396 1493.75 124.599 1488.28 129.642C1482.82 135.106 1479.04 141.41 1476.1 148.555C1473.15 156.12 1471.47 164.525 1471.47 173.351V307H1437.43V89.7156H1471.47V118.295ZM1634.25 89.7156H1668.3V307H1634.25V89.7156ZM1634.25 6.50025H1668.3V48.5282H1634.25V6.50025ZM1860.12 309.101C1838.68 309.101 1826.07 298.174 1822.71 276.74H1822.29C1818.93 280.943 1815.15 285.145 1810.52 288.928C1805.9 293.131 1800.86 296.913 1794.97 300.276C1789.09 303.638 1782.36 306.159 1775.22 308.261C1767.65 310.362 1759.25 311.203 1750 311.203C1739.5 311.203 1729.83 309.942 1721 307.42C1712.18 305.319 1704.19 301.536 1697.89 296.493C1691.16 291.45 1686.12 285.145 1682.34 277.58C1678.55 270.015 1676.45 261.19 1676.45 250.683C1676.45 237.654 1678.98 227.147 1683.6 219.162C1688.22 211.176 1694.95 204.452 1703.35 199.408C1711.76 194.365 1721.84 190.583 1733.61 187.641C1744.96 185.119 1757.57 182.597 1771.02 180.496C1778.58 179.235 1785.73 177.974 1792.03 176.713C1798.33 175.453 1804.22 173.771 1808.84 171.67C1813.46 169.569 1816.83 167.047 1819.35 163.264C1821.87 159.902 1823.13 155.279 1823.13 149.395C1823.13 137.207 1818.93 127.541 1810.52 120.816C1802.12 114.512 1789.93 111.15 1774.38 111.15C1756.73 111.15 1743.28 114.932 1734.45 122.497C1725.63 130.483 1720.58 142.671 1720.16 159.062H1687.38C1687.8 148.555 1689.48 138.888 1693.26 129.642C1697.05 120.816 1702.51 112.831 1709.66 106.527C1716.8 100.223 1725.63 94.7589 1736.55 90.9764C1747.06 87.1939 1759.67 85.5128 1773.96 85.5128C1785.31 85.5128 1796.23 86.7736 1805.9 88.875C1815.57 91.3967 1824.39 95.1792 1831.54 100.643C1838.68 106.106 1844.14 112.831 1848.35 121.657C1852.13 130.483 1854.23 141.41 1854.23 154.439V257.827C1854.23 266.653 1855.91 273.378 1858.85 277.58C1861.8 282.204 1867.68 283.044 1877.35 280.943H1878.61V305.739C1876.51 306.58 1873.98 307.42 1871.04 307.841C1868.1 308.681 1864.74 309.101 1860.12 309.101ZM1757.57 285.145C1768.91 285.145 1778.58 283.044 1786.99 279.262C1795.39 275.479 1802.12 270.856 1807.58 265.392C1813.04 259.929 1816.83 253.625 1819.77 246.48C1822.29 239.755 1823.55 233.031 1823.55 226.727V189.742C1818.09 193.525 1810.52 196.467 1801.7 198.988C1792.45 201.93 1783.2 204.032 1773.96 205.713C1765.55 207.394 1757.57 209.075 1750 210.756C1742.44 212.437 1736.13 214.959 1730.67 217.901C1725.21 221.263 1720.58 225.466 1717.64 230.509C1714.28 235.553 1712.6 241.857 1712.6 249.842C1712.6 256.987 1713.86 262.871 1716.8 267.494C1719.32 272.117 1722.68 275.899 1726.89 278.421C1731.09 280.943 1735.71 282.624 1741.18 283.464C1746.64 284.725 1752.1 285.145 1757.57 285.145Z" fill="white"/>
</svg>
