<svg width="135" height="16" viewBox="0 0 135 16" fill="none" xmlns="http://www.w3.org/2000/svg">
<path d="M10.9179 0.0166651V2.3H0.871261V0.0166651H10.9179ZM7.03626 16H4.75293V1.1355H7.03626V16ZM24.1067 6.41V8.69333H15.0647V6.41H24.1067ZM16.8457 16H14.5623V0.0166651H16.8457V16ZM24.609 16H22.3257V0.0166651H24.609V16ZM38.3001 0.0166651V2.3H29.0298V0.0166651H38.3001ZM38.3001 13.7167V16H29.0298V13.7167H38.3001ZM37.3868 6.4785V8.76183H29.0983V6.4785H37.3868ZM30.5368 16H28.2534V0.0166651H30.5368V16ZM57.9189 10.8397V11.753C57.9189 12.2858 58.1092 12.7501 58.4898 13.1458C58.8855 13.5264 59.3498 13.7167 59.8826 13.7167H61.4124C61.9909 13.7167 62.4628 13.5568 62.8281 13.2372C63.2086 12.9023 63.3989 12.4837 63.3989 11.9813C63.3989 11.5399 63.2543 11.1289 62.9651 10.7483C62.6759 10.3678 62.3105 10.0253 61.8691 9.72083C61.4429 9.41639 60.8492 9.04344 60.0881 8.602C59.19 8.08444 58.4593 7.62778 57.8961 7.232C57.3329 6.821 56.8534 6.33389 56.4576 5.77067C56.0618 5.19222 55.8639 4.53767 55.8639 3.807C55.8639 3.07633 56.039 2.42178 56.3891 1.84333C56.7544 1.26489 57.2568 0.815832 57.8961 0.496166C58.5506 0.176499 59.2889 0.0166651 60.1109 0.0166651H61.1841C61.9604 0.0166651 62.6759 0.206943 63.3304 0.587499C63.985 0.968055 64.5025 1.48561 64.8831 2.14017C65.2636 2.7795 65.4539 3.48733 65.4539 4.26367V4.94867H63.1706V4.26367C63.1706 3.71567 62.9727 3.25139 62.5769 2.87083C62.1964 2.49028 61.7321 2.3 61.1841 2.3H60.1109C59.502 2.3 59.0225 2.437 58.6724 2.711C58.3223 2.96978 58.1473 3.33511 58.1473 3.807C58.1473 4.12667 58.269 4.43111 58.5126 4.72033C58.7561 4.99433 59.0606 5.25311 59.4259 5.49667C59.7913 5.74022 60.3012 6.05228 60.9558 6.43283C61.93 6.99605 62.7291 7.506 63.3533 7.96267C63.9926 8.41933 64.5406 8.99017 64.9973 9.67517C65.4539 10.3449 65.6823 11.1137 65.6823 11.9813C65.6823 12.7272 65.492 13.4122 65.1114 14.0363C64.7461 14.6452 64.2361 15.1247 63.5816 15.4748C62.927 15.8249 62.204 16 61.4124 16H59.8826C59.1063 16 58.3908 15.8097 57.7363 15.4292C57.0969 15.0486 56.587 14.5387 56.2064 13.8993C55.8259 13.2448 55.6356 12.5293 55.6356 11.753V10.8397H57.9189ZM75.2633 13.6938C75.7657 13.6938 76.1919 13.5188 76.542 13.1687C76.9073 12.8033 77.09 12.3695 77.09 11.8672V4.12667C77.09 3.60911 76.9149 3.17528 76.5648 2.82517C76.2147 2.47505 75.7809 2.3 75.2633 2.3H73.4367C72.9191 2.3 72.4853 2.48267 72.1352 2.848C71.7851 3.19811 71.61 3.62433 71.61 4.12667V11.8672C71.61 12.3695 71.7851 12.8033 72.1352 13.1687C72.5005 13.5188 72.9343 13.6938 73.4367 13.6938H75.2633ZM73.4367 16C72.6908 16 72.0058 15.8173 71.3817 15.452C70.7576 15.0714 70.2552 14.5691 69.8747 13.945C69.5093 13.3057 69.3267 12.6131 69.3267 11.8672V4.12667C69.3267 3.38078 69.5093 2.69578 69.8747 2.07167C70.2552 1.43233 70.7576 0.929999 71.3817 0.564665C72.0058 0.199332 72.6908 0.0166651 73.4367 0.0166651H75.2633C76.0092 0.0166651 76.6942 0.199332 77.3183 0.564665C77.9577 0.929999 78.46 1.43233 78.8253 2.07167C79.1907 2.69578 79.3733 3.38078 79.3733 4.12667V11.8672C79.3733 12.6131 79.1907 13.3057 78.8253 13.945C78.46 14.5691 77.9577 15.0714 77.3183 15.452C76.6942 15.8173 76.0092 16 75.2633 16H73.4367ZM84.0224 2.3H85.3011V16H83.0177V0.0166651H85.3011L88.0411 5.97617L90.7811 0.0166651H93.0644V16H90.7811V2.3H92.0597L88.6576 9.561H87.4246L84.0224 2.3ZM106.755 0.0166651V16H103.445L98.4213 2.3H98.9922V16H96.7088V0.0166651H100.02L105.043 13.7167H104.472V0.0166651H106.755ZM116.565 14.9725H114.282V1.04417H116.565V14.9725ZM120.447 0.0166651V2.3H110.4V0.0166651H120.447ZM120.447 13.7167V16H110.4V13.7167H120.447ZM132.722 10.0177V12.301H125.507V10.0177H132.722ZM124.091 16V10.7483L127.973 0.0166651H130.256L134.138 10.7483V16H131.854V11.1593L129.137 3.62433H129.091L126.374 11.1593V16H124.091Z" fill="white" fill-opacity="0.85"/>
</svg>
